<svg xmlns="http://www.w3.org/2000/svg" xml:space="preserve" style="enable-background:new 0 0 566.9 127.1" viewBox="0 0 566.9 127.1"><linearGradient id="a" x1="32.783" x2="32.783" y1="-6.352" y2="89.985" gradientUnits="userSpaceOnUse"><stop offset="0" style="stop-color:#b0ff0b"/><stop offset=".112" style="stop-color:#a7fa0c"/><stop offset=".296" style="stop-color:#8fed0e"/><stop offset=".527" style="stop-color:#67d811"/><stop offset=".795" style="stop-color:#30bc15"/><stop offset="1" style="stop-color:#02a319"/></linearGradient><path d="M32.8 71.4c-8.9 0-16.1-7.2-16.1-16.1 0-8.9 7.2-16.1 16.1-16.1s16.1 7.2 16.1 16.1c-.1 8.9-7.3 16.1-16.1 16.1m32.7-48.8H48.9v4.3c-4.8-2.7-10.2-4.2-16.1-4.2C14.8 22.7.1 37.4.1 55.4S14.7 88 32.8 88s32.7-14.7 32.7-32.7V22.6z" style="fill:url(#a)"/><linearGradient id="b" x1="32.752" x2="32.752" y1="-7.513" y2="89.958" gradientUnits="userSpaceOnUse"><stop offset="0" style="stop-color:#b0ff0b"/><stop offset=".112" style="stop-color:#a7fa0c"/><stop offset=".296" style="stop-color:#8fed0e"/><stop offset=".527" style="stop-color:#67d811"/><stop offset=".795" style="stop-color:#30bc15"/><stop offset="1" style="stop-color:#02a319"/></linearGradient><path d="M16.6 127.1H0c0-17.9 14.6-32.5 32.5-32.5h33v16.6h-33c-8.8-.1-15.9 7.1-15.9 15.9" style="fill:url(#b)"/><linearGradient id="c" x1="88.459" x2="88.459" y1="-8.243" y2="88.666" gradientUnits="userSpaceOnUse"><stop offset="0" style="stop-color:#b0ff0b"/><stop offset=".112" style="stop-color:#a7fa0c"/><stop offset=".296" style="stop-color:#8fed0e"/><stop offset=".527" style="stop-color:#67d811"/><stop offset=".795" style="stop-color:#30bc15"/><stop offset="1" style="stop-color:#02a319"/></linearGradient><path d="M88.8 88H72.2V55c0-17.9 14.6-32.5 32.5-32.5v16.6c-8.8 0-16 7.2-16 16V88z" style="fill:url(#c)"/><linearGradient id="d" x1="392.585" x2="392.585" y1="-13.721" y2="81.497" gradientUnits="userSpaceOnUse"><stop offset="0" style="stop-color:#b0ff0b"/><stop offset=".112" style="stop-color:#a7fa0c"/><stop offset=".296" style="stop-color:#8fed0e"/><stop offset=".527" style="stop-color:#67d811"/><stop offset=".795" style="stop-color:#30bc15"/><stop offset="1" style="stop-color:#02a319"/></linearGradient><path d="M392.6 88c-18 0-32.6-14.6-32.6-32.5V22.6h16.6v32.9c0 8.8 7.2 16 16 16s16-7.2 16-16V22.6h16.6v32.9c-.1 17.9-14.7 32.5-32.6 32.5" style="fill:url(#d)"/><linearGradient id="e" x1="279.983" x2="279.983" y1="-11.828" y2="83.39" gradientUnits="userSpaceOnUse"><stop offset="0" style="stop-color:#b0ff0b"/><stop offset=".112" style="stop-color:#a7fa0c"/><stop offset=".296" style="stop-color:#8fed0e"/><stop offset=".527" style="stop-color:#67d811"/><stop offset=".795" style="stop-color:#30bc15"/><stop offset="1" style="stop-color:#02a319"/></linearGradient><path d="M312.5 88H296V55.2c0-8.8-7.2-16-16-16s-16 7.2-16 16V88h-16.6V55.2c0-17.9 14.6-32.5 32.5-32.5s32.5 14.6 32.5 32.5V88z" style="fill:url(#e)"/><linearGradient id="f" x1="465.301" x2="465.301" y1="-15.748" y2="79.761" gradientUnits="userSpaceOnUse"><stop offset="0" style="stop-color:#b0ff0b"/><stop offset=".112" style="stop-color:#a7fa0c"/><stop offset=".296" style="stop-color:#8fed0e"/><stop offset=".527" style="stop-color:#67d811"/><stop offset=".795" style="stop-color:#30bc15"/><stop offset="1" style="stop-color:#02a319"/></linearGradient><path d="M465.3 71.5c-8.8 0-16-7.2-16-16s7.2-16 16-16 16 7.2 16 16-7.2 16-16 16m0-48.5c-5.8 0-11.3 1.5-16 4.2V0h-16.6v55.5c0 17.9 14.6 32.5 32.5 32.5s32.5-14.6 32.5-32.5S483.2 23 465.3 23" style="fill:url(#f)"/><linearGradient id="g" x1="335.491" x2="335.491" y1="-13.069" y2="82.448" gradientUnits="userSpaceOnUse"><stop offset="0" style="stop-color:#b0ff0b"/><stop offset=".112" style="stop-color:#a7fa0c"/><stop offset=".296" style="stop-color:#8fed0e"/><stop offset=".527" style="stop-color:#67d811"/><stop offset=".795" style="stop-color:#30bc15"/><stop offset="1" style="stop-color:#02a319"/></linearGradient><path d="M351.8 39.2V22.6h-16V0h-16.6v55.3c0 17.9 14.6 32.5 32.5 32.5V71.3c-8.8 0-16-7.2-16-16V39.2h16.1z" style="fill:url(#g)"/><linearGradient id="h" x1="139.226" x2="139.226" y1="-8.881" y2="87.451" gradientUnits="userSpaceOnUse"><stop offset="0" style="stop-color:#b0ff0b"/><stop offset=".112" style="stop-color:#a7fa0c"/><stop offset=".296" style="stop-color:#8fed0e"/><stop offset=".527" style="stop-color:#67d811"/><stop offset=".795" style="stop-color:#30bc15"/><stop offset="1" style="stop-color:#02a319"/></linearGradient><path d="M170.7 63.8c.7-2.6 1.1-5.4 1.1-8.3 0-17.9-14.6-32.5-32.5-32.5s-32.5 14.6-32.5 32.5S121.3 88 139.2 88c13.2 0 24.7-7.9 29.7-19.3h-20.8c-2.6 1.8-5.7 2.8-9 2.8-8.8 0-16-7.2-16-16s7.2-16 16-16c5.8 0 10.9 3.1 13.7 7.7h-18.1v16.6h36z" style="fill:url(#h)"/><linearGradient id="i" x1="209.602" x2="209.602" y1="-10.556" y2="85.776" gradientUnits="userSpaceOnUse"><stop offset="0" style="stop-color:#b0ff0b"/><stop offset=".112" style="stop-color:#a7fa0c"/><stop offset=".296" style="stop-color:#8fed0e"/><stop offset=".527" style="stop-color:#67d811"/><stop offset=".795" style="stop-color:#30bc15"/><stop offset="1" style="stop-color:#02a319"/></linearGradient><path d="M205.1 63.8V47.2h18.1c-2.8-4.6-7.9-7.7-13.7-7.7-8.8 0-16 7.2-16 16s7.2 16 16 16c3.3 0 6.4-1 9-2.8h20.8c-5 11.4-16.4 19.3-29.7 19.3-17.9 0-32.5-14.6-32.5-32.5S191.7 23 209.6 23s32.5 14.6 32.5 32.5c0 2.9-.4 5.6-1.1 8.3h-35.9z" style="fill:url(#i)"/><linearGradient id="j" x1="534.386" x2="534.386" y1="-18.286" y2="78.046" gradientUnits="userSpaceOnUse"><stop offset="0" style="stop-color:#b0ff0b"/><stop offset=".112" style="stop-color:#a7fa0c"/><stop offset=".296" style="stop-color:#8fed0e"/><stop offset=".527" style="stop-color:#67d811"/><stop offset=".795" style="stop-color:#30bc15"/><stop offset="1" style="stop-color:#02a319"/></linearGradient><path d="M548 63.8h-18.1V47.2H548c-2.8-4.6-7.9-7.7-13.7-7.7-8.8 0-16 7.2-16 16s7.2 16 16 16c3.3 0 6.4-1 9-2.8h20.8C559 80.1 547.6 88 534.4 88c-17.9 0-32.5-14.6-32.5-32.5S516.4 23 534.4 23c17.9 0 32.5 14.6 32.5 32.5 0 2.9-.4 5.6-1.1 8.3H548z" style="fill:url(#j)"/></svg>